<svg width="26" height="26" viewBox="0 0 26 26" fill="none" xmlns="http://www.w3.org/2000/svg">
<path fill-rule="evenodd" clip-rule="evenodd" d="M8.1499 13C8.1499 12.8343 8.28422 12.7 8.4499 12.7C8.61559 12.7 8.7499 12.8343 8.7499 13C8.7499 13.1656 8.61559 13.3 8.4499 13.3C8.28422 13.3 8.1499 13.1656 8.1499 13ZM8.4499 10.7C7.17965 10.7 6.1499 11.7297 6.1499 13C6.1499 14.2702 7.17965 15.3 8.4499 15.3C9.72016 15.3 10.7499 14.2702 10.7499 13C10.7499 11.7297 9.72016 10.7 8.4499 10.7ZM17.2499 13C17.2499 12.8343 17.3842 12.7 17.5499 12.7C17.7156 12.7 17.8499 12.8343 17.8499 13C17.8499 13.1656 17.7156 13.3 17.5499 13.3C17.3842 13.3 17.2499 13.1656 17.2499 13ZM17.5499 10.7C16.2796 10.7 15.2499 11.7297 15.2499 13C15.2499 14.2702 16.2796 15.3 17.5499 15.3C18.8202 15.3 19.8499 14.2702 19.8499 13C19.8499 11.7297 18.8202 10.7 17.5499 10.7Z" fill="#637085"/>
</svg>
