<svg width="22" height="22" viewBox="0 0 22 22" fill="none" xmlns="http://www.w3.org/2000/svg">
<path fill-rule="evenodd" clip-rule="evenodd" d="M16.9022 8.18169C16.9022 9.28688 17.1944 9.93741 17.8372 10.6881C18.3243 11.2411 18.48 11.9519 18.48 12.7212C18.48 13.4914 18.2264 14.2208 17.72 14.8137C17.0579 15.5245 16.123 15.9783 15.1688 16.0572C13.7852 16.175 12.4024 16.2743 11.0005 16.2743C9.5976 16.2743 8.21486 16.2149 6.83212 16.0572C5.87706 15.9783 4.94212 15.5245 4.28005 14.8137C3.77278 14.2208 3.52002 13.4914 3.52002 12.7212C3.52002 11.9519 3.6757 11.2411 4.16285 10.6881C4.82492 9.93741 5.09779 9.28688 5.09779 8.18169V7.80591C5.09779 6.32582 5.46775 5.35801 6.22778 4.41146C7.35776 3.02887 9.16905 2.2002 10.9611 2.2002H11.0389C12.8695 2.2002 14.7394 3.06875 15.8501 4.50984C16.5708 5.43777 16.9022 6.36571 16.9022 7.80591V8.18169ZM9.2072 17.3612C9.64712 17.2672 12.3278 17.2672 12.7677 17.3612C13.1438 17.448 13.5505 17.6501 13.5505 18.0932C13.5286 18.516 13.2811 18.8891 12.9382 19.1257L12.9391 19.1266C12.4957 19.4723 11.9753 19.6921 11.4313 19.7709C11.1304 19.8091 10.8348 19.8108 10.5445 19.7709C9.99958 19.6921 9.4792 19.4723 9.03578 19.1266L9.03665 19.1257C8.69381 18.8891 8.4463 18.516 8.42443 18.0932C8.42443 17.6501 8.83112 17.448 9.2072 17.3612Z" fill="#202123"/>
<path d="M17.8372 10.6881C17.1944 9.93741 16.9022 9.28688 16.9022 8.18169V7.80591C16.9022 6.36571 16.5708 5.43777 15.8501 4.50984C14.7394 3.06875 12.8695 2.2002 11.0389 2.2002H10.9611C9.16905 2.2002 7.35776 3.02887 6.22778 4.41146C5.46775 5.35801 5.09779 6.32582 5.09779 7.80591V8.18169C5.09779 9.28688 4.82492 9.93741 4.16285 10.6881C3.6757 11.2411 3.52002 11.9519 3.52002 12.7212C3.52002 13.4914 3.77278 14.2208 4.28005 14.8137C4.94212 15.5245 5.87706 15.9783 6.83212 16.0572C8.21486 16.2149 9.5976 16.2743 11.0005 16.2743C12.4024 16.2743 13.7852 16.175 15.1688 16.0572C16.123 15.9783 17.0579 15.5245 17.72 14.8137C18.2264 14.2208 18.48 13.4914 18.48 12.7212C18.48 11.9519 18.3243 11.2411 17.8372 10.6881Z" fill="#E8E8E8"/>
<path opacity="0.4" d="M12.7676 17.361C12.3276 17.267 9.647 17.267 9.20708 17.361C8.831 17.4478 8.42432 17.6499 8.42432 18.0931C8.44618 18.5158 8.69369 18.8889 9.03654 19.1256L9.03566 19.1265C9.47908 19.4721 9.99947 19.6919 10.5443 19.7708C10.8347 19.8107 11.1303 19.8089 11.4312 19.7708C11.9752 19.6919 12.4956 19.4721 12.939 19.1265L12.9381 19.1256C13.281 18.8889 13.5285 18.5158 13.5503 18.0931C13.5503 17.6499 13.1436 17.4478 12.7676 17.361Z" fill="#E8E8E8"/>
</svg>
