<svg width="22" height="22" viewBox="0 0 22 22" fill="none" xmlns="http://www.w3.org/2000/svg">
<path fill-rule="evenodd" clip-rule="evenodd" d="M10.3536 3.8502C6.76133 3.8502 3.84995 6.76157 3.84995 10.3539C3.84995 13.9462 6.76133 16.8575 10.3536 16.8575C12.0776 16.8575 13.6436 16.1878 14.8082 15.0926C16.0706 13.9053 16.8573 12.2222 16.8573 10.3539C16.8573 6.76163 13.9452 3.8502 10.3536 3.8502ZM2.19995 10.3539C2.19995 5.8503 5.85006 2.2002 10.3536 2.2002C14.8563 2.2002 18.5073 5.85024 18.5073 10.3539C18.5073 12.3987 17.7538 14.2683 16.5111 15.6989L19.0613 18.4099C19.3735 18.7418 19.3576 19.2639 19.0257 19.5761C18.6938 19.8883 18.1717 19.8723 17.8595 19.5405L15.3091 16.8293C13.9359 17.8815 12.2171 18.5075 10.3536 18.5075C5.85006 18.5075 2.19995 14.8574 2.19995 10.3539Z" fill="#E8E8E8"/>
<path d="M6.97047 12.0999C6.73291 11.5998 6.59998 11.0404 6.59998 10.4499C6.59998 9.04942 7.34775 7.8236 8.4658 7.1499" stroke="#202123" stroke-width="1.5" stroke-linecap="round"/>
<path opacity="0.4" d="M6.97047 12.0999C6.73291 11.5998 6.59998 11.0404 6.59998 10.4499C6.59998 9.04942 7.34775 7.8236 8.4658 7.1499" stroke="#E8E8E8" stroke-width="1.5" stroke-linecap="round"/>
</svg>
