<svg width="22" height="22" viewBox="0 0 22 22" fill="none" xmlns="http://www.w3.org/2000/svg">
<path fill-rule="evenodd" clip-rule="evenodd" d="M18.3941 12.3906C18.7088 12.5578 18.9517 12.8218 19.1225 13.0858C19.4553 13.6314 19.4283 14.3002 19.1045 14.8898L18.475 15.9458C18.1423 16.509 17.5217 16.861 16.8832 16.861C16.5685 16.861 16.2177 16.773 15.9299 16.597C15.6961 16.4474 15.4263 16.3946 15.1385 16.3946C14.2482 16.3946 13.5018 17.125 13.4748 17.9962C13.4748 19.0082 12.6474 19.8002 11.6132 19.8002H10.3901C9.34689 19.8002 8.51952 19.0082 8.51952 17.9962C8.50153 17.125 7.75509 16.3946 6.86476 16.3946C6.56799 16.3946 6.29819 16.4474 6.07336 16.597C5.78558 16.773 5.42585 16.861 5.12008 16.861C4.47257 16.861 3.85203 16.509 3.51928 15.9458L2.89875 14.8898C2.566 14.3178 2.54802 13.6314 2.88077 13.0858C3.02466 12.8218 3.29445 12.5578 3.60022 12.3906C3.85203 12.2674 4.01391 12.065 4.1668 11.8274C4.61646 11.0706 4.34666 10.0762 3.58224 9.62739C2.69191 9.12579 2.40412 8.00819 2.91674 7.137L3.51928 6.09859C4.04089 5.22739 5.15605 4.9194 6.05537 5.4298C6.83778 5.8522 7.85402 5.5706 8.31267 4.8226C8.45657 4.5762 8.5375 4.3122 8.51952 4.0482C8.50153 3.705 8.60046 3.3794 8.77133 3.1154C9.10408 2.5698 9.70662 2.2178 10.3631 2.2002H11.6312C12.2967 2.2002 12.8992 2.5698 13.232 3.1154C13.3938 3.3794 13.5018 3.705 13.4748 4.0482C13.4568 4.3122 13.5377 4.5762 13.6816 4.8226C14.1403 5.5706 15.1565 5.8522 15.9479 5.4298C16.8383 4.9194 17.9624 5.22739 18.475 6.09859L19.0776 7.137C19.5992 8.00819 19.3114 9.12579 18.4121 9.62739C17.6476 10.0762 17.3778 11.0706 17.8365 11.8274C17.9804 12.065 18.1423 12.2674 18.3941 12.3906Z" fill="#202123"/>
<path d="M11.0106 13.4906C9.59868 13.4906 8.45654 12.3906 8.45654 11.009C8.45654 9.62735 9.59868 8.51855 11.0106 8.51855C12.4226 8.51855 13.5377 9.62735 13.5377 11.009C13.5377 12.3906 12.4226 13.4906 11.0106 13.4906Z" fill="#E8E8E8"/>
<path opacity="0.25" d="M19.1225 13.0858C18.9517 12.8218 18.7088 12.5578 18.3941 12.3906C18.1423 12.2674 17.9804 12.065 17.8365 11.8274C17.3778 11.0706 17.6476 10.0762 18.4121 9.62739C19.3114 9.12579 19.5992 8.00819 19.0776 7.13699L18.475 6.09859C17.9624 5.22739 16.8383 4.9194 15.9479 5.4298C15.1565 5.8522 14.1403 5.5706 13.6816 4.8226C13.5377 4.5762 13.4568 4.3122 13.4748 4.0482C13.5018 3.705 13.3938 3.3794 13.232 3.1154C12.8992 2.5698 12.2967 2.2002 11.6312 2.2002H10.3631C9.70662 2.2178 9.10408 2.5698 8.77133 3.1154C8.60046 3.3794 8.50153 3.705 8.51952 4.0482C8.5375 4.3122 8.45657 4.5762 8.31267 4.8226C7.85402 5.5706 6.83778 5.8522 6.05537 5.4298C5.15605 4.9194 4.04089 5.22739 3.51928 6.09859L2.91674 7.13699C2.40412 8.00819 2.69191 9.12579 3.58224 9.62739C4.34666 10.0762 4.61646 11.0706 4.1668 11.8274C4.01391 12.065 3.85203 12.2674 3.60022 12.3906C3.29445 12.5578 3.02466 12.8218 2.88077 13.0858C2.54802 13.6314 2.566 14.3178 2.89875 14.8898L3.51928 15.9458C3.85203 16.509 4.47257 16.861 5.12008 16.861C5.42585 16.861 5.78558 16.773 6.07336 16.597C6.29819 16.4474 6.56799 16.3946 6.86476 16.3946C7.75509 16.3946 8.50153 17.125 8.51952 17.9962C8.51952 19.0082 9.34689 19.8002 10.3901 19.8002H11.6132C12.6474 19.8002 13.4748 19.0082 13.4748 17.9962C13.5018 17.125 14.2482 16.3946 15.1385 16.3946C15.4263 16.3946 15.6961 16.4474 15.9299 16.597C16.2177 16.773 16.5685 16.861 16.8832 16.861C17.5217 16.861 18.1423 16.509 18.475 15.9458L19.1045 14.8898C19.4283 14.3002 19.4553 13.6314 19.1225 13.0858Z" fill="#E8E8E8"/>
</svg>
