<svg width="20" height="20" viewBox="0 0 20 20" fill="none" xmlns="http://www.w3.org/2000/svg">
<path d="M18 10C18 14.4192 14.4184 18 10 18C5.5816 18 2 14.4192 2 10C2 5.5824 5.5816 2 10 2C14.4184 2 18 5.5824 18 10Z" fill="white"/>
<path opacity="0.25" d="M18 10C18 14.4192 14.4184 18 10 18C5.5816 18 2 14.4192 2 10C2 5.5824 5.5816 2 10 2C14.4184 2 18 5.5824 18 10Z" fill="#1A1926"/>
<path d="M12.8577 13.0514C12.7529 13.0514 12.6473 13.0242 12.5505 12.9674L9.40968 11.0938C9.22888 10.985 9.11768 10.789 9.11768 10.5778V6.54019C9.11768 6.20899 9.38648 5.94019 9.71768 5.94019C10.0489 5.94019 10.3177 6.20899 10.3177 6.54019V10.237L13.1657 11.9354C13.4497 12.1058 13.5433 12.4738 13.3737 12.7586C13.2609 12.9466 13.0617 13.0514 12.8577 13.0514Z" fill="#1A1926"/>
</svg>
